<svg width="23" height="22" viewBox="0 0 23 22" fill="none" xmlns="http://www.w3.org/2000/svg">
<circle cx="11.5001" cy="10.9998" r="1.83333" stroke="#4B465C" stroke-width="1.5" stroke-linecap="round" stroke-linejoin="round"/>
<circle cx="11.5001" cy="10.9998" r="1.83333" stroke="white" stroke-opacity="0.2" stroke-width="1.5" stroke-linecap="round" stroke-linejoin="round"/>
<path d="M20.6666 11.0002C18.2218 15.2782 15.1666 17.4168 11.4999 17.4168C7.83325 17.4168 4.778 15.2782 2.33325 11.0002C4.778 6.72208 7.83325 4.5835 11.4999 4.5835C15.1666 4.5835 18.2218 6.72208 20.6666 11.0002" stroke="#4B465C" stroke-width="1.75" stroke-linecap="round" stroke-linejoin="round"/>
<path d="M20.6666 11.0002C18.2218 15.2782 15.1666 17.4168 11.4999 17.4168C7.83325 17.4168 4.778 15.2782 2.33325 11.0002C4.778 6.72208 7.83325 4.5835 11.4999 4.5835C15.1666 4.5835 18.2218 6.72208 20.6666 11.0002" stroke="white" stroke-opacity="0.2" stroke-width="1.75" stroke-linecap="round" stroke-linejoin="round"/>
</svg>
