<svg width="16" height="16" viewBox="0 0 16 16" fill="none" xmlns="http://www.w3.org/2000/svg">
<path d="M8.00002 13.0501C7.91113 13.0501 7.82779 13.0363 7.75002 13.0087C7.67224 12.9812 7.60002 12.9339 7.53335 12.8667L3.13335 8.46675C3.00002 8.33341 2.93335 8.17519 2.93335 7.99208C2.93335 7.80897 3.00002 7.65053 3.13335 7.51675C3.26668 7.38341 3.42224 7.31675 3.60002 7.31675C3.77779 7.31675 3.93335 7.38341 4.06668 7.51675L7.33335 10.7834L7.33335 3.31675C7.33335 3.12786 7.39735 2.9723 7.52535 2.85008C7.65335 2.72786 7.81157 2.66675 8.00002 2.66675C8.18891 2.66675 8.34735 2.73075 8.47535 2.85875C8.60335 2.98675 8.66713 3.14497 8.66668 3.33341V10.7834L11.9333 7.51675C12.0667 7.38341 12.2222 7.31675 12.4 7.31675C12.5778 7.31675 12.7333 7.38341 12.8667 7.51675C13 7.65008 13.0667 7.80853 13.0667 7.99208C13.0667 8.17564 13 8.33386 12.8667 8.46675L8.46668 12.8667C8.40002 12.9334 8.32779 12.9807 8.25002 13.0087C8.17224 13.0367 8.08891 13.0505 8.00002 13.0501Z" fill="#D02626"/>
</svg>
